# xmcd CD database file
#
# Track frame offsets:
#	150
#	21282
#	50298
#	74009
#	90427
#	116398
#	134263
#	161840
#	196044
#	213847
#	235588
#	254086
#
# Disc length: 3726 seconds
#
# Revision: 0
# Processed by: cddbd v1.5.1PL0 Copyright (c) Steve Scherf et al.
# Submitted via: CDex 1.60beta1
#
DISCID=a10e8c0c
DTITLE=Lucinda Williams - Rough Mixes
DYEAR=2005
DGENRE=Blues
TTITLE0=Knowing
TTITLE1=Unsuffer Me
TTITLE2=How To Love
TTITLE3=Real Love
TTITLE4=Come Out West
TTITLE5=Words
TTITLE6=Heaven Blues
TTITLE7=Rarity
TTITLE8=Circles and X's
TTITLE9=Come On
TTITLE10=Doors Of Heaven
TTITLE11=What If
EXTD=YEAR: 2005
EXTT0=
EXTT1=
EXTT2=
EXTT3=
EXTT4=
EXTT5=
EXTT6=
EXTT7=
EXTT8=
EXTT9=
EXTT10=
EXTT11=
PLAYORDER=
